<svg width="104" height="83" viewBox="0 0 104 83" fill="none" xmlns="http://www.w3.org/2000/svg">
<path d="M52.24 56.64C61.2 56.64 67.088 53.12 67.088 47.168C67.088 41.92 63.632 39.36 56.08 38.4L48.72 37.376C43.92 36.736 42.64 35.84 42.64 33.344C42.64 30.336 44.688 29.056 50.512 29.056C57.552 29.056 59.472 31.04 59.472 34.816L59.472 35.2L66.32 35.2L66.32 35.008C66.32 27.456 60.432 23.552 50.704 23.552C40.912 23.552 35.856 27.52 35.856 33.088C35.856 38.4 39.504 40.96 45.52 41.728L54.224 42.88C58.768 43.52 60.304 44.352 60.304 46.976C60.304 49.792 58.448 51.072 52.24 51.072C45.584 51.072 43.088 49.728 43.088 45.568L43.088 45.056L36.176 45.056L36.176 45.248C36.176 52.608 42 56.64 52.24 56.64Z" fill="#F89207"/>
<path d="M78.344 1.92L78.344 8.44799L80.168 8.44799C84.488 8.44799 86.12 9.888 86.12 14.592L86.12 31.584C86.12 37.536 89 39.552 93.32 39.552L93.32 40.128C89 40.128 86.12 42.144 86.12 48.096L86.12 65.088C86.12 69.792 84.488 71.232 80.168 71.232L78.344 71.232L78.344 77.76L79.784 77.76C88.616 77.76 92.552 73.152 92.552 65.376L92.552 48.192C92.552 44.448 93.704 43.392 97.64 43.392L101.192 43.392L101.192 36.288L97.64 36.288C93.704 36.288 92.552 35.232 92.552 31.488L92.552 14.304C92.552 6.528 88.616 1.92 79.784 1.92L78.344 1.92Z" fill="#F89207"/>
<path d="M24.768 77.76L24.768 71.232L22.944 71.232C18.624 71.232 16.992 69.792 16.992 65.088L16.992 48.096C16.992 42.144 14.112 40.128 9.792 40.128L9.792 39.552C14.112 39.552 16.992 37.536 16.992 31.584L16.992 14.592C16.992 9.888 18.624 8.44799 22.944 8.44799L24.768 8.44799L24.768 1.92L23.328 1.92C14.496 1.92 10.56 6.528 10.56 14.304L10.56 31.488C10.56 35.232 9.408 36.288 5.472 36.288L1.92 36.288L1.92 43.392L5.472 43.392C9.408 43.392 10.56 44.448 10.56 48.192L10.56 65.376C10.56 73.152 14.496 77.76 23.328 77.76L24.768 77.76Z" fill="#F89207"/>
</svg>
