<?xml version="1.0" encoding="utf-8"?>
<!-- Generator: Adobe Illustrator 27.1.1, SVG Export Plug-In . SVG Version: 6.00 Build 0)  -->
<svg version="1.1" id="Calque_1" xmlns="http://www.w3.org/2000/svg" xmlns:xlink="http://www.w3.org/1999/xlink" x="0px" y="0px"
	 viewBox="0 0 24 24" style="enable-background:new 0 0 24 24;" xml:space="preserve">
<style type="text/css">
	.st0{fill:#F89207;}
</style>
<g>
	<g>
		<path class="st0" d="M12,2C6.5,2,2,6.5,2,12s4.5,10,10,10s10-4.5,10-10S17.5,2,12,2z M12,20c-4.4,0-8-3.6-8-8s3.6-8,8-8s8,3.6,8,8
			S16.4,20,12,20z"/>
		<path class="st0" d="M10.5,11.8c0.7-0.1,1.1-0.7,1.1-1.4c0-1-0.8-1.6-1.9-1.6H7v6.5h2.7c1.3-0.1,2.3-0.7,2.3-1.9
			C12,12.5,11.4,11.8,10.5,11.8C10.5,11.8,10.5,11.8,10.5,11.8z M8.3,9.7h1.1c0.6,0,0.9,0.3,0.9,0.9s-0.4,0.9-1.2,0.9H8.3L8.3,9.7z
			 M9.3,14.2h-1v-1.9h1.2c0.8,0,1.2,0.4,1.2,1S10.2,14.2,9.3,14.2L9.3,14.2z"/>
		<path class="st0" d="M14.8,10.3c-1.2-0.1-2.2,0.8-2.3,1.9c0,0.1,0,0.2,0,0.3V13c-0.1,1.2,0.8,2.2,2,2.3c0.1,0,0.2,0,0.4,0
			c1,0.1,2-0.6,2.2-1.6h-1.2c-0.1,0.4-0.6,0.7-1,0.6c-0.6,0-1.1-0.5-1.1-1c0,0,0-0.1,0-0.1v-0.1H17v-0.5c0.1-1.2-0.8-2.2-1.9-2.3
			C15,10.3,14.9,10.3,14.8,10.3z M15.8,12.3h-2c0-0.6,0.4-1,0.9-1.1c0,0,0.1,0,0.1,0C15.3,11.2,15.7,11.7,15.8,12.3
			C15.7,12.2,15.7,12.3,15.8,12.3L15.8,12.3z"/>
		<rect x="13.2" y="9.2" class="st0" width="3" height="0.5"/>
	</g>
</g>
</svg>
